<?xml version="1.0" encoding="UTF-8" standalone="no"?>
<!DOCTYPE svg PUBLIC "-//W3C//DTD SVG 1.1//EN"
 "http://www.w3.org/Graphics/SVG/1.1/DTD/svg11.dtd">
<!-- Generated by graphviz version 2.43.0 (0)
 -->
<!-- Title: ZigbeePilotWireControl Pages: 1 -->
<!--zoomable 474 -->

<svg id="main" version="1.1" xmlns="http://www.w3.org/2000/svg" xmlns:xlink="http://www.w3.org/1999/xlink" xml:space="preserve" onload="init(evt)">
<style type="text/css"><![CDATA[
.node, .edge {opacity: 0.7;}
.node.selected, .edge.selected {opacity: 1;}
.edge:hover path { stroke: red; }
.edge:hover polygon { stroke: red; fill: red; }
]]></style>

<defs>
  <circle id="rim" cx="0" cy="0" r="7"/>
  <circle id="rim2" cx="0" cy="0" r="3.5"/>
  <g id="zoomPlus">
    <use xlink:href="#rim" fill="#404040"><set attributeName="fill" to="#808080" begin="zoomplus.mouseover" end="zoomplus.mouseout"/></use>
    <path d="M-4,0h8M0,-4v8" fill="none" stroke="white" stroke-width="1.5" pointer-events="none"/>
  </g>
  <g id="zoomMin">
    <use xlink:href="#rim" fill="#404040"><set attributeName="fill" to="#808080" begin="zoomminus.mouseover" end="zoomminus.mouseout"/></use>
    <path d="M-4,0h8" fill="none" stroke="white" stroke-width="1.5" pointer-events="none"/>
  </g>
  <g id="arrowUp" transform="translate(30 24)">
    <use xlink:href="#rim"/>
    <path pointer-events="none" fill="none" stroke="white" stroke-width="1.5" d="M0,-3.0v7 M-2.5,-0.5L0,-3.0L2.5,-0.5"/>
  </g>
  <g id="arrowRight" transform="rotate(90) translate(36 -43)">
    <use xlink:href="#rim"/>
    <path pointer-events="none" fill="none" stroke="white" stroke-width="1.5" d="M0,-3.0v7 M-2.5,-0.5L0,-3.0L2.5,-0.5"/>
  </g>
  <g id="arrowDown" transform="rotate(180) translate(-30 -48)">
    <use xlink:href="#rim"/>
    <path pointer-events="none" fill="none" stroke="white" stroke-width="1.5" d="M0,-3.0v7 M-2.5,-0.5L0,-3.0L2.5,-0.5"/>
  </g>
  <g id="arrowLeft" transform="rotate(270) translate(-36 17)">
    <use xlink:href="#rim"/>
    <path pointer-events="none" fill="none" stroke="white" stroke-width="1.5" d="M0,-3.0v7 M-2.5,-0.5L0,-3.0L2.5,-0.5"/>
  </g>
  <g id="resetDef">
    <use xlink:href="#rim2" fill="#404040"><set attributeName="fill" to="#808080" begin="reset.mouseover" end="reset.mouseout"/></use>
  </g>
</defs>
<script type="application/ecmascript">
var viewWidth = 1240;
var viewHeight = 474;
var sectionId = 'dynsection-1';
</script>
<script type="application/ecmascript" xlink:href="svg.min.js"/>
<svg id="graph" class="graph">
<g id="viewport">
<title>ZigbeePilotWireControl</title>
<!-- Node1 -->
<g id="Node000001" class="node">
<title>Node1</title>
<g id="a_Node000001"><a xlink:title="Class representing a Zigbee Pilot Wire Control endpoint. This class extends the ZigbeeEP class to imp...">
<polygon fill="#999999" stroke="transparent" points="623.5,-315 442.5,-315 442.5,0 623.5,0 623.5,-315"/>
<text text-anchor="start" x="476.5" y="-302.5" font-family="Helvetica,sans-Serif" font-size="10.00">ZigbeePilotWireControl</text>
<text text-anchor="start" x="531.5" y="-287.5" font-family="Helvetica,sans-Serif" font-size="10.00"> </text>
<text text-anchor="start" x="447" y="-272.5" font-family="Helvetica,sans-Serif" font-size="10.00">+</text>
<text text-anchor="start" x="460" y="-272.5" font-family="Helvetica,sans-Serif" font-size="10.00">ZigbeePilotWireControl()</text>
<text text-anchor="start" x="447" y="-257.5" font-family="Helvetica,sans-Serif" font-size="10.00">+</text>
<text text-anchor="start" x="460" y="-257.5" font-family="Helvetica,sans-Serif" font-size="10.00">ZigbeePilotWireControl()</text>
<text text-anchor="start" x="447" y="-242.5" font-family="Helvetica,sans-Serif" font-size="10.00">+</text>
<text text-anchor="start" x="460" y="-242.5" font-family="Helvetica,sans-Serif" font-size="10.00">ZigbeePilotWireControl()</text>
<text text-anchor="start" x="447" y="-227.5" font-family="Helvetica,sans-Serif" font-size="10.00">+</text>
<text text-anchor="start" x="460" y="-227.5" font-family="Helvetica,sans-Serif" font-size="10.00">ZigbeePilotWireControl()</text>
<text text-anchor="start" x="447" y="-212.5" font-family="Helvetica,sans-Serif" font-size="10.00">+</text>
<text text-anchor="start" x="460" y="-212.5" font-family="Helvetica,sans-Serif" font-size="10.00">onPilotWireModeChange()</text>
<text text-anchor="start" x="447" y="-197.5" font-family="Helvetica,sans-Serif" font-size="10.00">+</text>
<text text-anchor="start" x="460" y="-197.5" font-family="Helvetica,sans-Serif" font-size="10.00">begin()</text>
<text text-anchor="start" x="447" y="-182.5" font-family="Helvetica,sans-Serif" font-size="10.00">+</text>
<text text-anchor="start" x="460" y="-182.5" font-family="Helvetica,sans-Serif" font-size="10.00">begin()</text>
<text text-anchor="start" x="447" y="-167.5" font-family="Helvetica,sans-Serif" font-size="10.00">+</text>
<text text-anchor="start" x="460" y="-167.5" font-family="Helvetica,sans-Serif" font-size="10.00">begin()</text>
<text text-anchor="start" x="447" y="-152.5" font-family="Helvetica,sans-Serif" font-size="10.00">+</text>
<text text-anchor="start" x="460" y="-152.5" font-family="Helvetica,sans-Serif" font-size="10.00">begin()</text>
<text text-anchor="start" x="447" y="-137.5" font-family="Helvetica,sans-Serif" font-size="10.00">+</text>
<text text-anchor="start" x="460" y="-137.5" font-family="Helvetica,sans-Serif" font-size="10.00">pilotWireMode()</text>
<text text-anchor="start" x="460" y="-122.5" font-family="Helvetica,sans-Serif" font-size="10.00">and 25 more...</text>
<text text-anchor="start" x="447" y="-107.5" font-family="Helvetica,sans-Serif" font-size="10.00">#</text>
<text text-anchor="start" x="460" y="-107.5" font-family="Helvetica,sans-Serif" font-size="10.00">zbAttributeSet()</text>
<text text-anchor="start" x="447" y="-92.5" font-family="Helvetica,sans-Serif" font-size="10.00">#</text>
<text text-anchor="start" x="460" y="-92.5" font-family="Helvetica,sans-Serif" font-size="10.00">setReporting()</text>
<text text-anchor="start" x="447" y="-77.5" font-family="Helvetica,sans-Serif" font-size="10.00">#</text>
<text text-anchor="start" x="460" y="-77.5" font-family="Helvetica,sans-Serif" font-size="10.00">reportAttribute()</text>
<text text-anchor="start" x="447" y="-62.5" font-family="Helvetica,sans-Serif" font-size="10.00">#</text>
<text text-anchor="start" x="460" y="-62.5" font-family="Helvetica,sans-Serif" font-size="10.00">createPilotWireCluster()</text>
<text text-anchor="start" x="447" y="-47.5" font-family="Helvetica,sans-Serif" font-size="10.00">#</text>
<text text-anchor="start" x="460" y="-47.5" font-family="Helvetica,sans-Serif" font-size="10.00">createTemperatureMeasurement</text>
<text text-anchor="start" x="460" y="-36.5" font-family="Helvetica,sans-Serif" font-size="10.00">Cluster()</text>
<text text-anchor="start" x="447" y="-21.5" font-family="Helvetica,sans-Serif" font-size="10.00">#</text>
<text text-anchor="start" x="460" y="-21.5" font-family="Helvetica,sans-Serif" font-size="10.00">createMeteringCluster()</text>
<text text-anchor="start" x="449.5" y="-6.5" font-family="Helvetica,sans-Serif" font-size="10.00">&#45;</text>
<text text-anchor="start" x="460" y="-6.5" font-family="Helvetica,sans-Serif" font-size="10.00">pilotWireModeChanged()</text>
<polygon fill="#666666" stroke="#666666" points="443,-297.5 443,-297.5 624,-297.5 624,-297.5 443,-297.5"/>
<polygon fill="#666666" stroke="#666666" points="443,-282.5 443,-282.5 624,-282.5 624,-282.5 443,-282.5"/>
<polygon fill="none" stroke="#666666" points="442.5,0 442.5,-315 623.5,-315 623.5,0 442.5,0"/>
</a>
</g>
</g>
<!-- Node2 -->
<g id="Node000002" class="node">
<title>Node2</title>
<g id="a_Node000002"><a xlink:href="class_zigbee_e_p.html" target="_top" xlink:title=" ">
<polygon fill="white" stroke="transparent" points="56,-460.5 0,-460.5 0,-411.5 56,-411.5 56,-460.5"/>
<text text-anchor="start" x="5" y="-448" font-family="Helvetica,sans-Serif" font-size="10.00">ZigbeeEP</text>
<text text-anchor="start" x="26" y="-433" font-family="Helvetica,sans-Serif" font-size="10.00"> </text>
<text text-anchor="start" x="26" y="-418" font-family="Helvetica,sans-Serif" font-size="10.00"> </text>
<polygon fill="#666666" stroke="#666666" points="0,-443 0,-443 56,-443 56,-443 0,-443"/>
<polygon fill="#666666" stroke="#666666" points="0,-428 0,-428 56,-428 56,-428 0,-428"/>
<polygon fill="none" stroke="#666666" points="0,-411.5 0,-460.5 56,-460.5 56,-411.5 0,-411.5"/>
</a>
</g>
</g>
<!-- Node2&#45;&gt;Node1 -->
<g id="edge1_Node000001_Node000002" class="edge">
<title>Node2&#45;&gt;Node1</title>
<g id="a_edge1_Node000001_Node000002"><a xlink:title=" ">
<path fill="none" stroke="#63b8ff" d="M42.53,-402.28C53.8,-380.13 71.32,-351.62 94,-333 197.32,-248.17 347.05,-200.62 442.19,-177.27"/>
<polygon fill="none" stroke="#63b8ff" points="39.35,-400.81 38.08,-411.33 45.63,-403.9 39.35,-400.81"/>
</a>
</g>
</g>
<!-- Node3 -->
<g id="Node000003" class="node">
<title>Node3</title>
<g id="a_Node000003"><a xlink:title=" ">
<polygon fill="white" stroke="transparent" points="118,-460.5 74,-460.5 74,-411.5 118,-411.5 118,-460.5"/>
<text text-anchor="start" x="79" y="-448" font-family="Helvetica,sans-Serif" font-size="10.00">uint8_t</text>
<text text-anchor="start" x="94" y="-433" font-family="Helvetica,sans-Serif" font-size="10.00"> </text>
<text text-anchor="start" x="94" y="-418" font-family="Helvetica,sans-Serif" font-size="10.00"> </text>
<polygon fill="#666666" stroke="#666666" points="74,-443 74,-443 118,-443 118,-443 74,-443"/>
<polygon fill="#666666" stroke="#666666" points="74,-428 74,-428 118,-428 118,-428 74,-428"/>
<polygon fill="none" stroke="#666666" points="74,-411.5 74,-460.5 118,-460.5 118,-411.5 74,-411.5"/>
</a>
</g>
</g>
<!-- Node3&#45;&gt;Node1 -->
<g id="edge2_Node000001_Node000003" class="edge">
<title>Node3&#45;&gt;Node1</title>
<g id="a_edge2_Node000001_Node000003"><a xlink:title=" ">
<path fill="none" stroke="#63b8ff" d="M95.17,-411.29C95.63,-388.72 99.72,-355.03 118,-333 196.49,-238.4 335.17,-194.17 430.46,-174.13"/>
<polygon fill="none" stroke="#63b8ff" points="430.68,-174.09 435.77,-168.97 442.44,-171.69 437.36,-176.81 430.68,-174.09"/>
</a>
</g>
<text text-anchor="middle" x="160.5" y="-363.5" font-family="Helvetica,sans-Serif" font-size="10.00" fill="grey"> &#45;_current_mode</text>
<text text-anchor="middle" x="160.5" y="-352.5" font-family="Helvetica,sans-Serif" font-size="10.00" fill="grey">&#45;_state_on_mode</text>
</g>
<!-- Node4 -->
<g id="Node000004" class="node">
<title>Node4</title>
<g id="a_Node000004"><a xlink:title=" ">
<polygon fill="white" stroke="transparent" points="289.5,-466 136.5,-466 136.5,-406 289.5,-406 289.5,-466"/>
<text text-anchor="start" x="142" y="-454" font-family="Helvetica,sans-Serif" font-size="10.00">void(*)(ZigbeePilotWireMode</text>
<text text-anchor="start" x="196" y="-443" font-family="Helvetica,sans-Serif" font-size="10.00"> mode)</text>
<text text-anchor="start" x="211.5" y="-428" font-family="Helvetica,sans-Serif" font-size="10.00"> </text>
<text text-anchor="start" x="211.5" y="-413" font-family="Helvetica,sans-Serif" font-size="10.00"> </text>
<polygon fill="#666666" stroke="#666666" points="137,-438 137,-438 290,-438 290,-438 137,-438"/>
<polygon fill="#666666" stroke="#666666" points="137,-423 137,-423 290,-423 290,-423 137,-423"/>
<polygon fill="none" stroke="#666666" points="136.5,-406 136.5,-466 289.5,-466 289.5,-406 136.5,-406"/>
</a>
</g>
</g>
<!-- Node4&#45;&gt;Node1 -->
<g id="edge3_Node000001_Node000004" class="edge">
<title>Node4&#45;&gt;Node1</title>
<g id="a_edge3_Node000001_Node000004"><a xlink:title=" ">
<path fill="none" stroke="#63b8ff" d="M207.98,-405.91C205.8,-384.16 206.31,-354.58 220,-333 267.46,-258.2 358.95,-212.63 430.81,-186.91"/>
<polygon fill="none" stroke="#63b8ff" points="430.83,-186.9 435.18,-181.15 442.16,-182.95 437.82,-188.7 430.83,-186.9"/>
</a>
</g>
<text text-anchor="middle" x="269" y="-358" font-family="Helvetica,sans-Serif" font-size="10.00" fill="grey"> &#45;_on_mode_change</text>
</g>
<!-- Node5 -->
<g id="Node000005" class="node">
<title>Node5</title>
<g id="a_Node000005"><a xlink:title=" ">
<polygon fill="white" stroke="transparent" points="345,-460.5 313,-460.5 313,-411.5 345,-411.5 345,-460.5"/>
<text text-anchor="start" x="318" y="-448" font-family="Helvetica,sans-Serif" font-size="10.00">bool</text>
<text text-anchor="start" x="327" y="-433" font-family="Helvetica,sans-Serif" font-size="10.00"> </text>
<text text-anchor="start" x="327" y="-418" font-family="Helvetica,sans-Serif" font-size="10.00"> </text>
<polygon fill="#666666" stroke="#666666" points="313,-443 313,-443 345,-443 345,-443 313,-443"/>
<polygon fill="#666666" stroke="#666666" points="313,-428 313,-428 345,-428 345,-428 313,-428"/>
<polygon fill="none" stroke="#666666" points="313,-411.5 313,-460.5 345,-460.5 345,-411.5 313,-411.5"/>
</a>
</g>
</g>
<!-- Node5&#45;&gt;Node1 -->
<g id="edge4_Node000001_Node000005" class="edge">
<title>Node5&#45;&gt;Node1</title>
<g id="a_edge4_Node000001_Node000005"><a xlink:title=" ">
<path fill="none" stroke="#63b8ff" d="M324.54,-411.48C321.62,-389.97 320.24,-357.81 332,-333 353.76,-287.09 393.9,-248.44 432.62,-219.26"/>
<polygon fill="none" stroke="#63b8ff" points="432.75,-219.17 435.21,-212.39 442.42,-212.05 439.95,-218.83 432.75,-219.17"/>
</a>
</g>
<text text-anchor="middle" x="392.5" y="-380" font-family="Helvetica,sans-Serif" font-size="10.00" fill="grey"> &#45;_current_state</text>
<text text-anchor="middle" x="392.5" y="-369" font-family="Helvetica,sans-Serif" font-size="10.00" fill="grey">&#45;_current_state_changed</text>
<text text-anchor="middle" x="392.5" y="-358" font-family="Helvetica,sans-Serif" font-size="10.00" fill="grey">&#45;_metering_enabled</text>
<text text-anchor="middle" x="392.5" y="-347" font-family="Helvetica,sans-Serif" font-size="10.00" fill="grey">&#45;_nvs_enabled</text>
<text text-anchor="middle" x="392.5" y="-336" font-family="Helvetica,sans-Serif" font-size="10.00" fill="grey">&#45;_temperature_enabled</text>
</g>
<!-- Node6 -->
<g id="Node000006" class="node">
<title>Node6</title>
<g id="a_Node000006"><a xlink:title=" ">
<polygon fill="white" stroke="transparent" points="474,-460.5 406,-460.5 406,-411.5 474,-411.5 474,-460.5"/>
<text text-anchor="start" x="411" y="-448" font-family="Helvetica,sans-Serif" font-size="10.00">Preferences</text>
<text text-anchor="start" x="438" y="-433" font-family="Helvetica,sans-Serif" font-size="10.00"> </text>
<text text-anchor="start" x="438" y="-418" font-family="Helvetica,sans-Serif" font-size="10.00"> </text>
<polygon fill="#666666" stroke="#666666" points="406,-443 406,-443 474,-443 474,-443 406,-443"/>
<polygon fill="#666666" stroke="#666666" points="406,-428 406,-428 474,-428 474,-428 406,-428"/>
<polygon fill="none" stroke="#666666" points="406,-411.5 406,-460.5 474,-460.5 474,-411.5 406,-411.5"/>
</a>
</g>
</g>
<!-- Node6&#45;&gt;Node1 -->
<g id="edge5_Node000001_Node000006" class="edge">
<title>Node6&#45;&gt;Node1</title>
<g id="a_edge5_Node000001_Node000006"><a xlink:title=" ">
<path fill="none" stroke="#63b8ff" d="M447.93,-411.43C454.72,-391.24 465.16,-360.21 476.43,-326.7"/>
<polygon fill="none" stroke="#63b8ff" points="476.45,-326.63 474.57,-319.67 480.28,-315.26 482.15,-322.22 476.45,-326.63"/>
</a>
</g>
<text text-anchor="middle" x="490.5" y="-358" font-family="Helvetica,sans-Serif" font-size="10.00" fill="grey"> &#45;_prefs</text>
</g>
<!-- Node7 -->
<g id="Node000007" class="node">
<title>Node7</title>
<g id="a_Node000007"><a xlink:title=" ">
<polygon fill="white" stroke="transparent" points="602,-466 492,-466 492,-406 602,-406 602,-466"/>
<text text-anchor="start" x="497" y="-454" font-family="Helvetica,sans-Serif" font-size="10.00">esp_zb_temperature</text>
<text text-anchor="start" x="497" y="-443" font-family="Helvetica,sans-Serif" font-size="10.00">_meas_cluster_cfg_t</text>
<text text-anchor="start" x="545" y="-428" font-family="Helvetica,sans-Serif" font-size="10.00"> </text>
<text text-anchor="start" x="545" y="-413" font-family="Helvetica,sans-Serif" font-size="10.00"> </text>
<polygon fill="#666666" stroke="#666666" points="492,-438 492,-438 602,-438 602,-438 492,-438"/>
<polygon fill="#666666" stroke="#666666" points="492,-423 492,-423 602,-423 602,-423 492,-423"/>
<polygon fill="none" stroke="#666666" points="492,-406 492,-466 602,-466 602,-406 492,-406"/>
</a>
</g>
</g>
<!-- Node7&#45;&gt;Node1 -->
<g id="edge6_Node000001_Node000007" class="edge">
<title>Node7&#45;&gt;Node1</title>
<g id="a_edge6_Node000001_Node000007"><a xlink:title=" ">
<path fill="none" stroke="#63b8ff" d="M537.67,-405.92C536.15,-400.04 534.81,-393.87 534,-388 531.29,-368.37 529.6,-347.7 528.63,-327.14"/>
<polygon fill="none" stroke="#63b8ff" points="528.62,-327.05 524.38,-321.22 528.14,-315.06 532.38,-320.89 528.62,-327.05"/>
</a>
</g>
<text text-anchor="middle" x="581" y="-358" font-family="Helvetica,sans-Serif" font-size="10.00" fill="grey"> &#45;_temperature_cfg</text>
</g>
<!-- Node8 -->
<g id="Node000008" class="node">
<title>Node8</title>
<g id="a_Node000008"><a xlink:title=" ">
<polygon fill="white" stroke="transparent" points="666,-460.5 634,-460.5 634,-411.5 666,-411.5 666,-460.5"/>
<text text-anchor="start" x="639" y="-448" font-family="Helvetica,sans-Serif" font-size="10.00">float</text>
<text text-anchor="start" x="648" y="-433" font-family="Helvetica,sans-Serif" font-size="10.00"> </text>
<text text-anchor="start" x="648" y="-418" font-family="Helvetica,sans-Serif" font-size="10.00"> </text>
<polygon fill="#666666" stroke="#666666" points="634,-443 634,-443 666,-443 666,-443 634,-443"/>
<polygon fill="#666666" stroke="#666666" points="634,-428 634,-428 666,-428 666,-428 634,-428"/>
<polygon fill="none" stroke="#666666" points="634,-411.5 634,-460.5 666,-460.5 666,-411.5 634,-411.5"/>
</a>
</g>
</g>
<!-- Node8&#45;&gt;Node1 -->
<g id="edge7_Node000001_Node000008" class="edge">
<title>Node8&#45;&gt;Node1</title>
<g id="a_edge7_Node000001_Node000008"><a xlink:title=" ">
<path fill="none" stroke="#63b8ff" d="M646.87,-411.37C643.62,-390.34 637.65,-358.98 628,-333 627.22,-330.91 626.43,-328.81 625.61,-326.71"/>
<polygon fill="none" stroke="#63b8ff" points="625.55,-326.57 619.59,-322.5 621.05,-315.44 627.01,-319.5 625.55,-326.57"/>
</a>
</g>
<text text-anchor="middle" x="695" y="-358" font-family="Helvetica,sans-Serif" font-size="10.00" fill="grey"> &#45;_temperature_value</text>
</g>
<!-- Node9 -->
<g id="Node000009" class="node">
<title>Node9</title>
<g id="a_Node000009"><a xlink:title=" ">
<polygon fill="white" stroke="transparent" points="830,-466 698,-466 698,-406 830,-406 830,-466"/>
<text text-anchor="start" x="703" y="-454" font-family="Helvetica,sans-Serif" font-size="10.00">esp_zb_metering_cluster</text>
<text text-anchor="start" x="749" y="-443" font-family="Helvetica,sans-Serif" font-size="10.00">_cfg_t</text>
<text text-anchor="start" x="762" y="-428" font-family="Helvetica,sans-Serif" font-size="10.00"> </text>
<text text-anchor="start" x="762" y="-413" font-family="Helvetica,sans-Serif" font-size="10.00"> </text>
<polygon fill="#666666" stroke="#666666" points="698,-438 698,-438 830,-438 830,-438 698,-438"/>
<polygon fill="#666666" stroke="#666666" points="698,-423 698,-423 830,-423 830,-423 698,-423"/>
<polygon fill="none" stroke="#666666" points="698,-406 698,-466 830,-466 830,-406 698,-406"/>
</a>
</g>
</g>
<!-- Node9&#45;&gt;Node1 -->
<g id="edge8_Node000001_Node000009" class="edge">
<title>Node9&#45;&gt;Node1</title>
<g id="a_edge8_Node000001_Node000009"><a xlink:title=" ">
<path fill="none" stroke="#63b8ff" d="M766.29,-405.95C766.68,-384.5 764.39,-355.28 752,-333 724.71,-283.93 677.46,-243.61 633.82,-214.15"/>
<polygon fill="none" stroke="#63b8ff" points="633.72,-214.07 626.5,-214.1 623.7,-207.46 630.91,-207.43 633.72,-214.07"/>
</a>
</g>
<text text-anchor="middle" x="803.5" y="-358" font-family="Helvetica,sans-Serif" font-size="10.00" fill="grey"> &#45;_metering_cfg</text>
</g>
<!-- Node10 -->
<g id="Node000010" class="node">
<title>Node10</title>
<g id="a_Node000010"><a xlink:title=" ">
<polygon fill="white" stroke="transparent" points="937.5,-460.5 848.5,-460.5 848.5,-411.5 937.5,-411.5 937.5,-460.5"/>
<text text-anchor="start" x="854" y="-448" font-family="Helvetica,sans-Serif" font-size="10.00">esp_zb_uint48_t</text>
<text text-anchor="start" x="891.5" y="-433" font-family="Helvetica,sans-Serif" font-size="10.00"> </text>
<text text-anchor="start" x="891.5" y="-418" font-family="Helvetica,sans-Serif" font-size="10.00"> </text>
<polygon fill="#666666" stroke="#666666" points="849,-443 849,-443 938,-443 938,-443 849,-443"/>
<polygon fill="#666666" stroke="#666666" points="849,-428 849,-428 938,-428 938,-428 849,-428"/>
<polygon fill="none" stroke="#666666" points="848.5,-411.5 848.5,-460.5 937.5,-460.5 937.5,-411.5 848.5,-411.5"/>
</a>
</g>
</g>
<!-- Node10&#45;&gt;Node1 -->
<g id="edge9_Node000001_Node000010" class="edge">
<title>Node10&#45;&gt;Node1</title>
<g id="a_edge9_Node000001_Node000010"><a xlink:title=" ">
<path fill="none" stroke="#63b8ff" d="M886.68,-411.11C879.76,-388.74 866.8,-355.46 846,-333 787.96,-270.32 702.14,-224.68 635.03,-195.83"/>
<polygon fill="none" stroke="#63b8ff" points="634.64,-195.66 627.55,-197.01 623.58,-190.99 630.67,-189.64 634.64,-195.66"/>
</a>
</g>
<text text-anchor="middle" x="935.5" y="-358" font-family="Helvetica,sans-Serif" font-size="10.00" fill="grey"> &#45;_summationDelivered</text>
</g>
<!-- Node11 -->
<g id="Node000011" class="node">
<title>Node11</title>
<g id="a_Node000011"><a xlink:title=" ">
<polygon fill="white" stroke="transparent" points="1061.5,-460.5 972.5,-460.5 972.5,-411.5 1061.5,-411.5 1061.5,-460.5"/>
<text text-anchor="start" x="978" y="-448" font-family="Helvetica,sans-Serif" font-size="10.00">esp_zb_uint24_t</text>
<text text-anchor="start" x="1015.5" y="-433" font-family="Helvetica,sans-Serif" font-size="10.00"> </text>
<text text-anchor="start" x="1015.5" y="-418" font-family="Helvetica,sans-Serif" font-size="10.00"> </text>
<polygon fill="#666666" stroke="#666666" points="973,-443 973,-443 1062,-443 1062,-443 973,-443"/>
<polygon fill="#666666" stroke="#666666" points="973,-428 973,-428 1062,-428 1062,-428 973,-428"/>
<polygon fill="none" stroke="#666666" points="972.5,-411.5 972.5,-460.5 1061.5,-460.5 1061.5,-411.5 972.5,-411.5"/>
</a>
</g>
</g>
<!-- Node11&#45;&gt;Node1 -->
<g id="edge10_Node000001_Node000011" class="edge">
<title>Node11&#45;&gt;Node1</title>
<g id="a_edge10_Node000001_Node000011"><a xlink:title=" ">
<path fill="none" stroke="#63b8ff" d="M1018.01,-411.14C1017.68,-388.46 1013.68,-354.69 995,-333 903.81,-227.13 741.49,-185.34 635.56,-168.94"/>
<polygon fill="none" stroke="#63b8ff" points="635.44,-168.92 628.92,-172 623.58,-167.16 630.1,-164.08 635.44,-168.92"/>
</a>
</g>
<text text-anchor="middle" x="1044.5" y="-363.5" font-family="Helvetica,sans-Serif" font-size="10.00" fill="grey"> &#45;_divisor</text>
<text text-anchor="middle" x="1044.5" y="-352.5" font-family="Helvetica,sans-Serif" font-size="10.00" fill="grey">&#45;_multiplier</text>
</g>
<!-- Node12 -->
<g id="Node000012" class="node">
<title>Node12</title>
<g id="a_Node000012"><a xlink:title=" ">
<polygon fill="white" stroke="transparent" points="1162.5,-460.5 1079.5,-460.5 1079.5,-411.5 1162.5,-411.5 1162.5,-460.5"/>
<text text-anchor="start" x="1085" y="-448" font-family="Helvetica,sans-Serif" font-size="10.00">esp_zb_int24_t</text>
<text text-anchor="start" x="1119.5" y="-433" font-family="Helvetica,sans-Serif" font-size="10.00"> </text>
<text text-anchor="start" x="1119.5" y="-418" font-family="Helvetica,sans-Serif" font-size="10.00"> </text>
<polygon fill="#666666" stroke="#666666" points="1080,-443 1080,-443 1163,-443 1163,-443 1080,-443"/>
<polygon fill="#666666" stroke="#666666" points="1080,-428 1080,-428 1163,-428 1163,-428 1080,-428"/>
<polygon fill="none" stroke="#666666" points="1079.5,-411.5 1079.5,-460.5 1162.5,-460.5 1162.5,-411.5 1079.5,-411.5"/>
</a>
</g>
</g>
<!-- Node12&#45;&gt;Node1 -->
<g id="edge11_Node000001_Node000012" class="edge">
<title>Node12&#45;&gt;Node1</title>
<g id="a_edge11_Node000001_Node000012"><a xlink:title=" ">
<path fill="none" stroke="#63b8ff" d="M1116.72,-411.48C1111.32,-388.4 1099.85,-353.74 1077,-333 952.82,-220.3 755.39,-180.35 635.63,-166.21"/>
<polygon fill="none" stroke="#63b8ff" points="635.49,-166.2 629.08,-169.5 623.57,-164.85 629.98,-161.55 635.49,-166.2"/>
</a>
</g>
<text text-anchor="middle" x="1170.5" y="-358" font-family="Helvetica,sans-Serif" font-size="10.00" fill="grey"> &#45;_instantaneousDemand</text>
</g>
</g>
</svg>

<g id="navigator" transform="translate(0 0)" fill="#404254">
  <rect fill="#f2f5e9" fill-opacity="0.5" stroke="#606060" stroke-width=".5" x="0" y="0" width="60" height="60"/>
  <use id="zoomplus" xlink:href="#zoomPlus" x="17" y="9" onmousedown="handleZoom(evt,'in')"/>
  <use id="zoomminus" xlink:href="#zoomMin" x="42" y="9" onmousedown="handleZoom(evt,'out')"/>
  <use id="reset" xlink:href="#resetDef" x="30" y="36" onmousedown="handleReset()"/>
   <use id="arrowup" xlink:href="#arrowUp" x="0" y="0" onmousedown="handlePan(0,-1)"/>
  <use id="arrowright" xlink:href="#arrowRight" x="0" y="0" onmousedown="handlePan(1,0)"/>
  <use id="arrowdown" xlink:href="#arrowDown" x="0" y="0" onmousedown="handlePan(0,1)"/>
  <use id="arrowleft" xlink:href="#arrowLeft" x="0" y="0" onmousedown="handlePan(-1,0)"/>
</g>
<svg viewBox="0 0 15 15" width="100%" height="30px" preserveAspectRatio="xMaxYMin meet">
 <g id="arrow_out" transform="scale(0.3 0.3)">
  <a xlink:href="class_zigbee_pilot_wire_control__coll__graph_org.svg" target="_base">
   <rect id="button" ry="5" rx="5" y="6" x="6" height="38" width="38"
        fill="#f2f5e9" fill-opacity="0.5" stroke="#606060" stroke-width="1.0"/>
   <path id="arrow"
     d="M 11.500037,31.436501 C 11.940474,20.09759 22.043105,11.32322 32.158766,21.979434 L 37.068811,17.246167 C 37.068811,17.246167 37.088388,32 37.088388,32 L 22.160133,31.978069 C 22.160133,31.978069 26.997745,27.140456 26.997745,27.140456 C 18.528582,18.264221 13.291696,25.230495 11.500037,31.436501 z"
     style="fill:#404040;"/>
  </a>
 </g>
</svg>

<style type='text/css'>
<![CDATA[
[data-mouse-over-selected='false'] { opacity: 0.7; }
[data-mouse-over-selected='true']  { opacity: 1.0; }
]]>
</style>
<script type="application/ecmascript"><![CDATA[
document.addEventListener('DOMContentLoaded', (event) => {
  highlightEdges();
  highlightAdjacentNodes();
});
]]></script>
</svg>
