<?xml version="1.0" encoding="UTF-8" standalone="no"?>
<!DOCTYPE svg PUBLIC "-//W3C//DTD SVG 1.1//EN"
 "http://www.w3.org/Graphics/SVG/1.1/DTD/svg11.dtd">
<!-- Generated by graphviz version 2.43.0 (0)
 -->
<!-- Title: ZigbeePilotWireControl Pages: 1 -->
<svg width="189pt" height="558pt"
 viewBox="0.00 0.00 189.00 558.00" xmlns="http://www.w3.org/2000/svg" xmlns:xlink="http://www.w3.org/1999/xlink">
<g id="graph0" class="graph" transform="scale(1 1) rotate(0) translate(4 554)">
<title>ZigbeePilotWireControl</title>
<!-- Node1 -->
<g id="Node000001" class="node">
<title>Node1</title>
<g id="a_Node000001"><a xlink:title="Class representing a Zigbee Pilot Wire Control endpoint. This class extends the ZigbeeEP class to imp...">
<polygon fill="#999999" stroke="transparent" points="181,-465 0,-465 0,0 181,0 181,-465"/>
<text text-anchor="start" x="34" y="-452.5" font-family="Helvetica,sans-Serif" font-size="10.00">ZigbeePilotWireControl</text>
<text text-anchor="start" x="7" y="-437.5" font-family="Helvetica,sans-Serif" font-size="10.00">&#45;</text>
<text text-anchor="start" x="17.5" y="-437.5" font-family="Helvetica,sans-Serif" font-size="10.00">_current_mode</text>
<text text-anchor="start" x="7" y="-422.5" font-family="Helvetica,sans-Serif" font-size="10.00">&#45;</text>
<text text-anchor="start" x="17.5" y="-422.5" font-family="Helvetica,sans-Serif" font-size="10.00">_state_on_mode</text>
<text text-anchor="start" x="7" y="-407.5" font-family="Helvetica,sans-Serif" font-size="10.00">&#45;</text>
<text text-anchor="start" x="17.5" y="-407.5" font-family="Helvetica,sans-Serif" font-size="10.00">_on_mode_change</text>
<text text-anchor="start" x="7" y="-392.5" font-family="Helvetica,sans-Serif" font-size="10.00">&#45;</text>
<text text-anchor="start" x="17.5" y="-392.5" font-family="Helvetica,sans-Serif" font-size="10.00">_current_state</text>
<text text-anchor="start" x="7" y="-377.5" font-family="Helvetica,sans-Serif" font-size="10.00">&#45;</text>
<text text-anchor="start" x="17.5" y="-377.5" font-family="Helvetica,sans-Serif" font-size="10.00">_current_state_changed</text>
<text text-anchor="start" x="7" y="-362.5" font-family="Helvetica,sans-Serif" font-size="10.00">&#45;</text>
<text text-anchor="start" x="17.5" y="-362.5" font-family="Helvetica,sans-Serif" font-size="10.00">_nvs_enabled</text>
<text text-anchor="start" x="7" y="-347.5" font-family="Helvetica,sans-Serif" font-size="10.00">&#45;</text>
<text text-anchor="start" x="17.5" y="-347.5" font-family="Helvetica,sans-Serif" font-size="10.00">_prefs</text>
<text text-anchor="start" x="7" y="-332.5" font-family="Helvetica,sans-Serif" font-size="10.00">&#45;</text>
<text text-anchor="start" x="17.5" y="-332.5" font-family="Helvetica,sans-Serif" font-size="10.00">_temperature_enabled</text>
<text text-anchor="start" x="7" y="-317.5" font-family="Helvetica,sans-Serif" font-size="10.00">&#45;</text>
<text text-anchor="start" x="17.5" y="-317.5" font-family="Helvetica,sans-Serif" font-size="10.00">_temperature_cfg</text>
<text text-anchor="start" x="7" y="-302.5" font-family="Helvetica,sans-Serif" font-size="10.00">&#45;</text>
<text text-anchor="start" x="17.5" y="-302.5" font-family="Helvetica,sans-Serif" font-size="10.00">_temperature_value</text>
<text text-anchor="start" x="17.5" y="-287.5" font-family="Helvetica,sans-Serif" font-size="10.00">and 6 more...</text>
<text text-anchor="start" x="4.5" y="-272.5" font-family="Helvetica,sans-Serif" font-size="10.00">+</text>
<text text-anchor="start" x="17.5" y="-272.5" font-family="Helvetica,sans-Serif" font-size="10.00">ZigbeePilotWireControl()</text>
<text text-anchor="start" x="4.5" y="-257.5" font-family="Helvetica,sans-Serif" font-size="10.00">+</text>
<text text-anchor="start" x="17.5" y="-257.5" font-family="Helvetica,sans-Serif" font-size="10.00">ZigbeePilotWireControl()</text>
<text text-anchor="start" x="4.5" y="-242.5" font-family="Helvetica,sans-Serif" font-size="10.00">+</text>
<text text-anchor="start" x="17.5" y="-242.5" font-family="Helvetica,sans-Serif" font-size="10.00">ZigbeePilotWireControl()</text>
<text text-anchor="start" x="4.5" y="-227.5" font-family="Helvetica,sans-Serif" font-size="10.00">+</text>
<text text-anchor="start" x="17.5" y="-227.5" font-family="Helvetica,sans-Serif" font-size="10.00">ZigbeePilotWireControl()</text>
<text text-anchor="start" x="4.5" y="-212.5" font-family="Helvetica,sans-Serif" font-size="10.00">+</text>
<text text-anchor="start" x="17.5" y="-212.5" font-family="Helvetica,sans-Serif" font-size="10.00">onPilotWireModeChange()</text>
<text text-anchor="start" x="4.5" y="-197.5" font-family="Helvetica,sans-Serif" font-size="10.00">+</text>
<text text-anchor="start" x="17.5" y="-197.5" font-family="Helvetica,sans-Serif" font-size="10.00">begin()</text>
<text text-anchor="start" x="4.5" y="-182.5" font-family="Helvetica,sans-Serif" font-size="10.00">+</text>
<text text-anchor="start" x="17.5" y="-182.5" font-family="Helvetica,sans-Serif" font-size="10.00">begin()</text>
<text text-anchor="start" x="4.5" y="-167.5" font-family="Helvetica,sans-Serif" font-size="10.00">+</text>
<text text-anchor="start" x="17.5" y="-167.5" font-family="Helvetica,sans-Serif" font-size="10.00">begin()</text>
<text text-anchor="start" x="4.5" y="-152.5" font-family="Helvetica,sans-Serif" font-size="10.00">+</text>
<text text-anchor="start" x="17.5" y="-152.5" font-family="Helvetica,sans-Serif" font-size="10.00">begin()</text>
<text text-anchor="start" x="4.5" y="-137.5" font-family="Helvetica,sans-Serif" font-size="10.00">+</text>
<text text-anchor="start" x="17.5" y="-137.5" font-family="Helvetica,sans-Serif" font-size="10.00">pilotWireMode()</text>
<text text-anchor="start" x="17.5" y="-122.5" font-family="Helvetica,sans-Serif" font-size="10.00">and 24 more...</text>
<text text-anchor="start" x="4.5" y="-107.5" font-family="Helvetica,sans-Serif" font-size="10.00">#</text>
<text text-anchor="start" x="17.5" y="-107.5" font-family="Helvetica,sans-Serif" font-size="10.00">zbAttributeSet()</text>
<text text-anchor="start" x="4.5" y="-92.5" font-family="Helvetica,sans-Serif" font-size="10.00">#</text>
<text text-anchor="start" x="17.5" y="-92.5" font-family="Helvetica,sans-Serif" font-size="10.00">setReporting()</text>
<text text-anchor="start" x="4.5" y="-77.5" font-family="Helvetica,sans-Serif" font-size="10.00">#</text>
<text text-anchor="start" x="17.5" y="-77.5" font-family="Helvetica,sans-Serif" font-size="10.00">reportAttribute()</text>
<text text-anchor="start" x="4.5" y="-62.5" font-family="Helvetica,sans-Serif" font-size="10.00">#</text>
<text text-anchor="start" x="17.5" y="-62.5" font-family="Helvetica,sans-Serif" font-size="10.00">createPilotWireCluster()</text>
<text text-anchor="start" x="4.5" y="-47.5" font-family="Helvetica,sans-Serif" font-size="10.00">#</text>
<text text-anchor="start" x="17.5" y="-47.5" font-family="Helvetica,sans-Serif" font-size="10.00">createTemperatureMeasurement</text>
<text text-anchor="start" x="17.5" y="-36.5" font-family="Helvetica,sans-Serif" font-size="10.00">Cluster()</text>
<text text-anchor="start" x="4.5" y="-21.5" font-family="Helvetica,sans-Serif" font-size="10.00">#</text>
<text text-anchor="start" x="17.5" y="-21.5" font-family="Helvetica,sans-Serif" font-size="10.00">createMeteringCluster()</text>
<text text-anchor="start" x="7" y="-6.5" font-family="Helvetica,sans-Serif" font-size="10.00">&#45;</text>
<text text-anchor="start" x="17.5" y="-6.5" font-family="Helvetica,sans-Serif" font-size="10.00">pilotWireModeChanged()</text>
<polygon fill="#666666" stroke="#666666" points="0.5,-447.5 0.5,-447.5 181.5,-447.5 181.5,-447.5 0.5,-447.5"/>
<polygon fill="#666666" stroke="#666666" points="0.5,-282.5 0.5,-282.5 15.5,-282.5 15.5,-282.5 0.5,-282.5"/>
<polygon fill="#666666" stroke="#666666" points="15.5,-282.5 15.5,-282.5 181.5,-282.5 181.5,-282.5 15.5,-282.5"/>
<polygon fill="none" stroke="#666666" points="0,0 0,-465 181,-465 181,0 0,0"/>
</a>
</g>
</g>
<!-- Node2 -->
<g id="Node000002" class="node">
<title>Node2</title>
<g id="a_Node000002"><a xlink:href="class_zigbee_e_p.html" target="_top" xlink:title=" ">
<polygon fill="white" stroke="transparent" points="118.5,-550 62.5,-550 62.5,-501 118.5,-501 118.5,-550"/>
<text text-anchor="start" x="67.5" y="-537.5" font-family="Helvetica,sans-Serif" font-size="10.00">ZigbeeEP</text>
<text text-anchor="start" x="88.5" y="-522.5" font-family="Helvetica,sans-Serif" font-size="10.00"> </text>
<text text-anchor="start" x="88.5" y="-507.5" font-family="Helvetica,sans-Serif" font-size="10.00"> </text>
<polygon fill="#666666" stroke="#666666" points="62.5,-532.5 62.5,-532.5 118.5,-532.5 118.5,-532.5 62.5,-532.5"/>
<polygon fill="#666666" stroke="#666666" points="62.5,-517.5 62.5,-517.5 118.5,-517.5 118.5,-517.5 62.5,-517.5"/>
<polygon fill="none" stroke="#666666" points="62.5,-501 62.5,-550 118.5,-550 118.5,-501 62.5,-501"/>
</a>
</g>
</g>
<!-- Node2&#45;&gt;Node1 -->
<g id="edge1_Node000001_Node000002" class="edge">
<title>Node2&#45;&gt;Node1</title>
<g id="a_edge1_Node000001_Node000002"><a xlink:title=" ">
<path fill="none" stroke="#63b8ff" d="M90.5,-490.43C90.5,-482.93 90.5,-474.45 90.5,-465.25"/>
<polygon fill="none" stroke="#63b8ff" points="87,-490.69 90.5,-500.69 94,-490.69 87,-490.69"/>
</a>
</g>
</g>
</g>
</svg>
